<?xml version="1.0" encoding="UTF-8" standalone="no"?>
<!-- Created with Inkscape (http://www.inkscape.org/) -->
<svg
   xmlns:dc="http://purl.org/dc/elements/1.1/"
   xmlns:cc="http://web.resource.org/cc/"
   xmlns:rdf="http://www.w3.org/1999/02/22-rdf-syntax-ns#"
   xmlns:svg="http://www.w3.org/2000/svg"
   xmlns="http://www.w3.org/2000/svg"
   xmlns:sodipodi="http://inkscape.sourceforge.net/DTD/sodipodi-0.dtd"
   xmlns:inkscape="http://www.inkscape.org/namespaces/inkscape"
   width="744.09448819"
   height="1052.3622047"
   id="svg2"
   sodipodi:version="0.32"
   inkscape:version="0.42+0.43pre2"
   sodipodi:docbase="/home/tapas/source/my_projects/sound/dssi_convolve-0.0.3"
   sodipodi:docname="dssi_convolve_gtk.svg">
  <defs
     id="defs4" />
  <sodipodi:namedview
     id="base"
     pagecolor="#ffffff"
     bordercolor="#666666"
     borderopacity="1.0"
     inkscape:pageopacity="0.0"
     inkscape:pageshadow="2"
     inkscape:zoom="1"
     inkscape:cx="328.48819"
     inkscape:cy="884.87454"
     inkscape:document-units="px"
     inkscape:current-layer="layer1"
     inkscape:window-width="750"
     inkscape:window-height="537"
     inkscape:window-x="277"
     inkscape:window-y="191" />
  <metadata
     id="metadata7">
    <rdf:RDF>
      <cc:Work
         rdf:about="">
        <dc:format>image/svg+xml</dc:format>
        <dc:type
           rdf:resource="http://purl.org/dc/dcmitype/StillImage" />
      </cc:Work>
    </rdf:RDF>
  </metadata>
  <g
     inkscape:label="Layer 1"
     inkscape:groupmode="layer"
     id="layer1">
    <path
       style="fill:#000000;fill-opacity:1;fill-rule:nonzero;stroke:none;stroke-width:1pt;stroke-linecap:butt;stroke-linejoin:miter;stroke-opacity:1"
       id="path1331"
       d="M 176.73519,214.33824 C 180.66877,214.6473 184.39988,213.65719 188.25073,213.20078 C 196.63683,211.98842 205.10232,210.93806 213.64159,210.65197 C 221.99266,211.00589 230.16382,209.66904 238.47099,209.38047 C 246.12813,209.27471 253.78778,209.32432 261.44597,209.32645 C 270.12985,209.3426 278.81365,209.34493 287.49754,209.341 C 300.24978,209.10755 312.80618,210.72732 325.52256,211.31614 C 339.49628,212.76306 353.55377,213.81614 367.43573,215.73428 C 378.62611,216.8558 389.82771,217.81634 400.95435,219.33007 C 412.13925,220.29982 423.16195,222.10726 434.29541,223.37143 C 450.93967,225.45411 467.28696,228.8978 483.8186,231.53485 L 478.17424,234.58737 C 461.47749,231.91232 444.85321,228.7911 428.0006,226.81378 C 416.86146,225.44987 405.77064,223.85721 394.57344,222.80307 C 383.49313,221.29056 372.3231,220.37906 361.20114,219.12536 C 347.3655,217.21233 333.33559,216.168 319.41161,214.72177 C 306.63259,214.09297 293.96341,212.61104 281.14109,212.92958 C 272.4405,212.92568 263.73998,212.929 255.03941,212.94306 C 247.38902,212.94065 239.73656,212.88396 232.0877,213.01368 C 223.79829,213.33994 215.61781,214.60602 207.27981,214.2707 C 198.73265,214.57417 190.2558,215.67076 181.86999,216.9353 C 177.91953,217.44522 174.07807,218.35241 170.02951,218.12394 L 176.73519,214.33824 z "
       inkscape:export-filename="/home/tapas/text1341.png"
       inkscape:export-xdpi="72"
       inkscape:export-ydpi="72" />
    <path
       style="fill:#000000;fill-opacity:1;fill-rule:nonzero;stroke:none;stroke-width:1pt;stroke-linecap:butt;stroke-linejoin:miter;stroke-opacity:1"
       id="path1333"
       d="M 238.45016,211.88412 C 239.00477,209.36497 239.8917,206.99002 240.14939,204.40318 C 239.84415,201.59238 240.32756,199.1252 241.51796,196.52062 C 241.96344,193.66049 241.80639,190.75893 241.87231,187.88321 C 243.47491,185.46256 243.42304,182.86177 243.45693,180.20436 C 243.45668,179.56622 243.4539,178.9281 243.45238,178.28997 L 250.68207,175.42597 C 250.68397,176.06445 250.68601,176.70292 250.68776,177.3414 C 250.67228,179.99703 250.97622,182.72461 249.17126,185.0881 C 249.02192,187.96376 249.14166,190.87499 248.84427,193.75619 C 247.88316,196.37463 246.89294,198.72289 247.39051,201.55823 C 247.23513,204.12463 246.42542,206.50885 245.83544,208.96013 L 238.45016,211.88412 z "
       inkscape:export-filename="/home/tapas/text1341.png"
       inkscape:export-xdpi="72"
       inkscape:export-ydpi="72" />
    <path
       style="fill:#000000;fill-opacity:1;fill-rule:nonzero;stroke:none;stroke-width:1pt;stroke-linecap:butt;stroke-linejoin:miter;stroke-opacity:1"
       id="path1337"
       d="M 251.33191,177.39372 C 241.92032,182.34288 245.47083,180.11232 247.95007,175.99987 C 249.68726,173.50176 247.16961,173.17548 244.49,172.34459 C 235.39257,174.22155 247.09509,166.50888 245.00867,172.70122 C 245.4515,175.63579 248.6307,175.01835 251.46993,173.95884 C 250.12861,175.19613 246.89692,177.8356 242.97215,174.46675 C 238.43617,172.05366 239.30583,173.36848 246.87018,170.2465 L 239.38443,172.91015 C 245.93738,169.87512 245.6149,168.32917 250.02461,171.26382 C 255.6418,174.66288 255.3297,173.98468 245.04778,177.86738 C 241.63188,178.87556 238.12837,178.88131 237.73164,175.51893 C 238.73773,170.73795 245.2017,168.06195 251.17174,168.7266 C 254.17021,169.6945 257.08708,170.58862 255.44115,173.46625 C 252.80299,177.60445 251.45415,179.23317 244.62622,181.17943 L 251.33191,177.39372 z "
       inkscape:export-filename="/home/tapas/text1341.png"
       inkscape:export-xdpi="72"
       inkscape:export-ydpi="72" />
    <path
       style="fill:#000000;fill-opacity:1;fill-rule:nonzero;stroke:none;stroke-width:1pt;stroke-linecap:butt;stroke-linejoin:miter;stroke-opacity:1"
       id="path1339"
       d="M 273.46498,209.24243 C 275.93713,212.4665 276.75875,217.04834 277.89167,220.88208 C 278.70169,224.15165 281.26645,229.62497 282.52092,231.29605 C 266.13467,241.05532 288.93771,211.63938 291.29741,207.74262 C 296.7308,199.31917 303.45997,191.49576 310.58392,183.91391 C 322.69048,176.37258 319.92484,187.48601 320.02713,194.73033 C 320.25665,202.77935 320.02555,210.84076 320.40626,218.88401 C 324.55459,223.90901 312.6787,229.75611 319.61518,218.43057 C 320.70258,215.47916 329.58207,197.1734 335.33628,204.99218 C 337.23879,209.99215 338.79247,215.09125 341.85728,219.7544 C 348.62217,220.17035 333.60041,226.95274 346.88285,217.96683 C 356.38382,211.08402 360.65812,209.55026 367.90026,217.97122 C 373.69553,226.72783 381.31826,223.68307 372.77974,227.47261 C 380.31314,224.32701 389.52398,214.85112 398.35888,217.34058 C 401.24969,220.1118 402.61514,222.39745 406.874,222.57046 C 392.8715,229.36231 409.86808,217.16963 416.37539,219.23355 C 418.1571,220.64033 420.40693,221.5773 422.43813,222.7356 L 415.56815,226.14821 C 413.54916,224.99663 411.36811,224.01939 409.52031,222.6922 C 405.18172,222.28404 403.88328,223.64473 412.19197,219.9446 C 416.36985,218.08405 396.9437,229.06046 400.50085,226.53841 C 396.0078,225.95523 394.47431,223.35954 391.54835,220.77074 C 389.02781,220.71196 382.1405,223.42203 384.2693,222.37171 C 395.2896,216.93448 382.87305,223.57317 380.29009,225.21272 C 368.60291,230.49776 367.64456,229.3355 361.11759,221.0559 C 359.46182,219.12406 357.88194,216.98632 355.506,215.51751 C 354.94652,215.17165 352.81332,215.41417 353.42213,215.1229 C 366.04687,209.08271 356.66605,213.61545 354.22841,215.65598 C 349.35343,218.88706 341.00651,226.78688 334.82755,222.89903 C 331.97136,218.14192 330.39423,213.01723 328.30069,208.04488 C 338.94264,199.8889 329.11779,208.74008 326.79775,215.89173 C 324.36447,219.93232 315.47552,230.99753 313.27014,221.771 C 313.12217,213.65705 313.53432,205.52473 313.30461,197.40474 C 312.99681,188.87744 308.04764,184.35704 318.03016,181.39746 C 310.73872,189.08754 303.28071,196.72612 297.90849,205.40483 C 291.7251,215.51822 287.76946,229.04968 276.0852,235.30192 C 273.29005,232.10337 272.42096,227.71156 270.92822,223.79994 C 269.89274,220.3217 268.8696,215.8168 266.75931,213.02815 L 273.46498,209.24243 z "
       inkscape:export-filename="/home/tapas/text1341.png"
       inkscape:export-xdpi="72"
       inkscape:export-ydpi="72" />
    <text
       xml:space="preserve"
       style="font-size:27.97576904px;font-style:normal;font-weight:normal;fill:#000000;fill-opacity:1;stroke:none;stroke-width:1pt;stroke-linecap:butt;stroke-linejoin:miter;stroke-opacity:1;font-family:Bitstream Vera Sans"
       x="430.98611"
       y="148.96886"
       id="text1341"
       transform="scale(0.758811,1.317851)"
       inkscape:export-xdpi="72"
       inkscape:export-ydpi="72"><tspan
         sodipodi:role="line"
         id="tspan1343"
         x="430.98611"
         y="148.96886">dssi-convolve</tspan></text>
  </g>
</svg>
