/* XPM */
static char * dssi_convolve_logo_xpm[] = {
"206 45 2 1",
" 	c None",
".	c #000000",
"                                                 .....                                                                                                                                                        ",
"                                               .........                                                                                                                                                      ",
"                                              ..........                                                                                                                                                      ",
"                                             ...........                                                                                                                                                      ",
"                                             ..........                                                                                                                                                       ",
"                                             .........                                                                                                                                                        ",
"                                              . .....                                                                                                                                                         ",
"                                                .....                                                                                                                                                         ",
"                                                .....                                                                                                                                                         ",
"                                                .....                                         ....                                                                                                            ",
"                                                ....                                        ......                                                                                                            ",
"                                                ....                                       .......              .                                       .                                                     ",
"                                               .....                                      .........             .  .   .          .   .    .            .       .                                             ",
"                                               .....                                      .........          .  . .   .   .      .   . .  . . .  . .    . .    . .                                            ",
"                                               .....                                     ... ......          .  . ..  ..  .     .           .    . .  . . . . ....                                            ",
"                                               .....                                    ...  ......          .  .   .   . .     .           .  ..  .  . .   .                                                 ",
"                                               .....                                   ...    .....           . .   .   . .      .   . .    .  ..  . .  .  .   .                                              ",
"                                               .....                                  ...     ....                                                                                                            ",
"                                               ....                                  ....     ....                                                                                                            ",
"                                               ....                                  ...      .....                                                                                                           ",
"                                              .....                                 ...       .....                                                                                                           ",
"                                              .....                                ...        .....                                                                                                           ",
"                                              .....                               ....        .....                                                                                                           ",
"                                              .....                               ...         .....       .                                                                                                   ",
"                                              ....                               ...          .....     ....                                                                                                  ",
"                                              ....                              ....          .....    ......                                                                                                 ",
"                                              ....                              ...           .....   .......                                                                                                 ",
"                                             ......................................           .....   ........                                                                                                ",
"                           ........................................................................  .........                                                                                                ",
"                ...............................................................................................            .                                                                                  ",
"         .........................                              .....        ....        .............................  .......                                                                               ",
"   .............                                                ......      ....              ..................................                                                                              ",
"  .......                                                        .....      ....              ........    ..............................                                                                      ",
"                                                                 .....     ....               ........     .....    ... ...............................                                                       ",
"                                                                 ......   .....               .......      ......  ..        .............................    ....                                            ",
"                                                                  .....   ....                ......        ........          ......      ..........................                                          ",
"                                                                  .....  .....                .....         ......            .......      ..     ........................                                    ",
"                                                                  ...........                  ...                             ........  ..         .............................                             ",
"                                                                   .........                                                    .........            ...        .......................                       ",
"                                                                   .........                                                     ......                                    ..................                 ",
"                                                                   ........                                                                                                       .................           ",
"                                                                    ......                                                                                                              .................     ",
"                                                                    .....                                                                                                                     ............... ",
"                                                                     ...                                                                                                                            ........  ",
"                                                                     .                                                                                                                                        "};
